<svg xmlns="http://www.w3.org/2000/svg" width="1439" height="485" fill="none" viewBox="0 0 1439 485">
  <path stroke="url(#a)" stroke-width="4" d="M-67 330.646c88.374 59.28 156.382 95.842 338.221 68.736 284.033-42.341 189.113-226.617 94.193-167.292-54.188 33.867-30.913 133.106 165.473 133.106 196.387 0 338.918-164.756 519.693-129.47C1307.7 285.914 1427.72 196.085 1507 1.518"/>
  <path stroke="url(#b)" stroke-dasharray="3.64 5.82" stroke-width=".727" d="M164 333v151.29"/>
  <path stroke="url(#c)" stroke-dasharray="3.64 5.82" stroke-width=".727" d="M766.551 223.361v151.291"/>
  <path stroke="url(#d)" stroke-dasharray="3.64 5.82" stroke-width=".727" d="M1298.98 154.99v151.29"/>
  <circle cx="164.274" cy="408.274" r="8.728" fill="#A3C09B" stroke="#fff" stroke-width="2.909"/>
  <circle cx="767.274" cy="300.274" r="8.728" fill="#7F9CE7" stroke="#fff" stroke-width="2.909"/>
  <circle cx="1299.27" cy="231.274" r="8.728" fill="#E19A80" stroke="#fff" stroke-width="2.909"/>
  <path fill="#282725" d="M200.879 447.269c-1.536.291-2.706.454-3.509.489-.803.023-1.431-.151-1.885-.524-.442-.384-.663-1.07-.663-2.06 0-1.152.174-1.99.523-2.513.361-.536.867-.85 1.519-.943.663-.105 1.542-.076 2.636.087l-.209 1.17a17.582 17.582 0 0 0-1.833-.105c-.559 0-1.03.047-1.414.14-.07.104-.14.326-.21.663a6.09 6.09 0 0 0-.087 1.065c0 .78.169 1.321.506 1.623.338.303.797.454 1.379.454.594-.011 1.49-.099 2.688-.262.222-.035.449-.064.681-.087l-.122.803Zm-1.885 7.157c-.92 0-1.694-.11-2.322-.331-.628-.21-1.117-.565-1.466-1.065-.338-.489-.507-1.147-.507-1.973 0-.081.082-.169.245-.262.174-.093.337-.139.489-.139.163 0 .244.064.244.192 0 .64.169 1.123.506 1.449a2.29 2.29 0 0 0 1.24.611 9.133 9.133 0 0 0 1.693.139c.931 0 2.071-.116 3.421-.349l.158 1.17a21.94 21.94 0 0 1-2.008.401 11.35 11.35 0 0 1-1.693.157Zm-4.295-3.369c0-.396.012-.721.035-.977.082-.745.274-1.31.576-1.694.303-.384.827-.698 1.572-.942.744-.245 1.984-.547 3.718-.908.128-.023.262-.047.401-.07l-.087 1.082c-.954.187-1.879.396-2.776.629-.884.233-1.588.448-2.112.646a.726.726 0 0 0-.14.07 1.322 1.322 0 0 1-.139.052 6.396 6.396 0 0 0-.018.419c-.011.244-.029.739-.052 1.484 0 .07-.081.134-.244.192-.152.07-.315.104-.489.104-.163.012-.245-.017-.245-.087Zm11.221-.558c-.78 0-1.374-.146-1.781-.437-.407-.302-.576-.832-.506-1.588l.488-4.696h1.432c1.117 0 1.967.215 2.549.646.581.43.971 1.053 1.169 1.868.198.814.303 1.908.314 3.281l-.907.908v-.349c-.012-1.292-.082-2.275-.21-2.95-.128-.675-.413-1.199-.855-1.571-.442-.373-1.129-.559-2.06-.559h-.663l-.35 3.928c.361.093.955.139 1.781.139.687 0 1.397-.034 2.13-.104.256-.024.454-.041.593-.053v1.257a1.774 1.774 0 0 1-.244.053c-.07 0-.151.005-.245.017-.372.058-.791.105-1.256.14-.454.046-.914.07-1.379.07Zm-2.217 2.234c1.454-.209 2.554-.454 3.299-.733.756-.268 1.315-.588 1.676-.96v-1.519c0-.116.075-.233.227-.349.163-.128.314-.169.453-.122.152.035.227.209.227.523 0 .85-.11 1.537-.331 2.06-.221.524-.739.995-1.554 1.414-.815.419-2.071.757-3.771 1.013l-.226-1.327Zm6.424 0c.99-.198 1.833-.46 2.532-.786.698-.314 1.216-.651 1.553-1.012.349-.361.53-.692.541-.995l.018-.751c.023-.07.105-.203.244-.401.152-.198.291-.332.419-.402s.192.012.192.245c0 .849-.099 1.594-.297 2.234-.186.64-.663 1.257-1.431 1.851-.756.593-1.926 1.041-3.509 1.344l-.262-1.327Zm4.155-7.978 1.187-.104c.105 1.792.157 3.119.157 3.98 0 .558-.064 1.001-.192 1.326-.116.326-.25.547-.401.664-.152.128-.268.198-.349.209l-.402-6.075Zm3.683 5.656c-.488 0-.902-.029-1.239-.087a2.126 2.126 0 0 1-.855-.384c-.245-.198-.431-.489-.559-.873a3.64 3.64 0 0 1-.175-.855 15.55 15.55 0 0 1-.035-1.17c0-.186-.005-.32-.017-.401v-.402l.454-.419.052 1.152c.024.582.111 1.019.262 1.31.151.291.384.494.698.611.326.104.798.157 1.414.157l.175.174v1.013l-.175.174Zm11.788.035c-.408 0-.873-.064-1.397-.192a5.328 5.328 0 0 1-1.397-.558c-.407-.245-.663-.524-.768-.838a1.167 1.167 0 0 1-.035-.28c.012-.093.035-.192.07-.296.058-.128.111-.233.157-.315.315.233.693.443 1.135.629.442.174.919.314 1.432.419a7.267 7.267 0 0 0 1.483.122l-.157-5.307 1.205-.052v4.765c0 .489-.047.867-.14 1.135a1.014 1.014 0 0 1-.524.594c-.244.116-.599.174-1.064.174Zm-11.784-1.396h.245c.64 0 1.193-.059 1.658-.175.477-.116.844-.297 1.1-.541v-3.963h1.047v2.479c0 .873-.145 1.571-.436 2.095-.279.512-.716.884-1.309 1.117-.582.233-1.35.349-2.305.349v-1.361Zm5.796 1.396c-.757 0-1.379-.192-1.868-.576-.477-.384-.716-.896-.716-1.536v-3.893h.838v2.985c0 .547.146.955.437 1.222.302.268.779.402 1.431.402l-.122 1.396Zm0 0c-.047 0-.105-.122-.175-.366a2.125 2.125 0 0 1-.052-.699c.035-.221.151-.331.349-.331.466 0 .879-.041 1.24-.123.372-.081.657-.203.855-.366v-4.207h1.047v3.91c0 .384-.128.745-.384 1.082-.244.326-.611.594-1.1.803-.488.198-1.082.297-1.78.297Zm2.758-9.182h2.042v1.344h-2.042v-1.344Zm-2.06 0h2.06v1.344h-2.06v-1.344Zm1.344-1.431h1.432v1.431h-1.432v-1.431Z"/>
  <path fill="#7C7C7C" d="M197.884 472.036c-.829 0-1.532-.135-2.108-.406-.576-.27-1.012-.637-1.309-1.099a2.87 2.87 0 0 1-.445-1.585h.877c0 .437.118.825.354 1.166.235.331.576.593 1.021.785.454.192.995.288 1.623.288.777 0 1.388-.153 1.833-.458.445-.306.668-.755.668-1.349 0-.34-.083-.624-.249-.851-.166-.235-.427-.423-.785-.563-.358-.148-.838-.266-1.44-.353-.865-.122-1.554-.288-2.069-.498-.506-.209-.877-.48-1.113-.811-.236-.332-.353-.747-.353-1.244 0-.515.13-.96.392-1.335.271-.385.655-.677 1.152-.878.498-.209 1.087-.314 1.768-.314.716 0 1.34.118 1.872.354.541.235.952.563 1.231.982.288.418.432.894.432 1.427h-.864c0-.419-.122-.768-.367-1.048a2.16 2.16 0 0 0-.982-.641 3.85 3.85 0 0 0-1.348-.223c-.733 0-1.309.14-1.728.419-.419.279-.629.694-.629 1.244 0 .314.087.58.262.798.175.21.454.385.838.524.384.14.899.253 1.545.341.794.104 1.436.266 1.924.484.498.218.864.506 1.1.864.236.358.354.794.354 1.309 0 .559-.144 1.039-.432 1.441-.28.401-.681.707-1.205.916-.524.209-1.13.314-1.82.314Zm7.32-.17c-.375 0-.668-.044-.877-.131a.917.917 0 0 1-.445-.445c-.096-.21-.144-.493-.144-.851v-7.162h.864v7.136c0 .253.048.427.144.523.096.088.266.131.51.131h1.153v.799h-1.205Zm-2.933-5.748v-.798h4.138v.798h-4.138Zm8.383 5.918a3.233 3.233 0 0 1-1.689-.445 3.105 3.105 0 0 1-1.165-1.231c-.271-.523-.406-1.112-.406-1.767 0-.655.135-1.244.406-1.768a3.102 3.102 0 0 1 1.165-1.23 3.233 3.233 0 0 1 1.689-.445c.506 0 .986.104 1.44.314.454.201.803.515 1.048.942h.078v-1.086h.877v6.546h-.877v-1.087h-.078a2.273 2.273 0 0 1-1.048.956 3.517 3.517 0 0 1-1.44.301Zm.105-.825c.497 0 .929-.104 1.296-.314.375-.218.663-.524.864-.916.201-.402.301-.864.301-1.388 0-.786-.227-1.418-.681-1.899-.445-.48-1.038-.72-1.78-.72-.489 0-.921.11-1.296.328a2.188 2.188 0 0 0-.864.916c-.201.393-.301.851-.301 1.375 0 .785.222 1.418.667 1.898.454.48 1.052.72 1.794.72Zm5.327.655v-6.546h.864v.877h.079c.139-.323.34-.55.602-.681.262-.131.62-.196 1.073-.196h4.452v.798h-4.792c-.489 0-.847.166-1.074.498-.226.332-.34.781-.34 1.348v3.902h-.864Zm5.865 0c-.357 0-.641-.048-.851-.144a.975.975 0 0 1-.471-.445c-.096-.21-.144-.489-.144-.838v-7.162h.864v7.136c0 .253.048.427.144.523.096.088.266.131.511.131h1.152v.799h-1.205Z"/>
  <path fill="#282725" d="m706.7 259.269.104-1.117c.07-.652.227-1.164.472-1.536.244-.373.657-.693 1.239-.96l3.107-1.432-.261 1.327-2.968 1.361c-.151.07-.279.169-.384.297a1.085 1.085 0 0 0-.297.664l-.174 2.059-.838-.663Zm2.252 2.008c-.571 0-1.03-.053-1.38-.158a1.25 1.25 0 0 1-.733-.61c-.151-.303-.198-.716-.139-1.24a.41.41 0 0 1 .349.052c.116.059.232.152.349.28a.767.767 0 0 0 .14.139c.186.07.389.117.611.14a17.736 17.736 0 0 0 2.164-.035 16.57 16.57 0 0 0 1.17-.122l-.175-3.544.594.21.279 2.077c.105.722.076 1.286-.087 1.693-.163.396-.495.681-.995.856-.489.174-1.205.262-2.147.262Zm4.852 1.134a2.35 2.35 0 0 1-1.152-.279 2.224 2.224 0 0 1-.803-.803 3.03 3.03 0 0 1-.331-1.205l-.524-7.052 1.082-.209.14 2.985c.07 1.431.128 2.537.174 3.316.024.466.076.827.158 1.083.093.256.25.454.471.593.233.14.576.21 1.03.21h.611l.174.174v1.013l-.174.174h-.856Zm.859-1.361c.5 0 1.03-.041 1.588-.123.571-.081.972-.209 1.205-.384l-.192-4.713 1.204-.052v3.84c0 .687-.145 1.24-.436 1.659-.291.407-.716.698-1.274.872-.559.175-1.257.262-2.095.262v-1.361Zm3.963-8.484v1.501h-1.449v-1.501h1.449Zm6.476 9.845c-.78 0-1.432-.07-1.955-.209-.512-.14-.92-.402-1.222-.786-.291-.395-.443-.948-.454-1.658l-.227-8.379 1.239-.14v8.292c0 .361.07.652.21.873.139.209.395.372.768.489.384.104.931.157 1.641.157l.174.174v1.013l-.174.174Zm-.006-1.361h.244c.559 0 1.071-.07 1.537-.21.477-.139.803-.308.977-.506l-.14-4.225 1.187-.052v3.003c0 .791-.145 1.437-.436 1.937-.291.489-.716.85-1.274 1.083-.559.221-1.257.331-2.095.331v-1.361Zm6.04 1.361a7.238 7.238 0 0 1-1.362-.157 2.446 2.446 0 0 1-1.117-.628c-.326-.326-.489-.78-.489-1.362v-3.701h.733v2.671c0 .71.198 1.193.594 1.449.407.244.995.367 1.763.367l.175.174v1.013l-.175.174h-.122Zm-2.95 1.414v1.362h-2.008v-1.362h2.008Zm2.007 0v1.362h-2.007v-1.362h2.007Zm7.848-1.361c-.349.011-.85-.047-1.502-.175a8.613 8.613 0 0 1-1.78-.541c-.524-.233-.821-.489-.89-.768a1.335 1.335 0 0 1-.053-.384c0-.093.012-.198.035-.314l.07-.35.157.088c.582.314 1.286.576 2.112.785.827.21 1.699.332 2.619.367v-4.12h-2.357c-.396 0-.71.122-.943.367-.232.232-.395.57-.488 1.012l-.419 1.885c-.152.687-.495 1.211-1.03 1.572-.524.349-1.141.523-1.851.523h-.471v-1.361h.436c.594 0 1.03-.064 1.31-.192.291-.14.494-.332.611-.576.116-.256.238-.67.366-1.24l.053-.209c.035-.14.069-.32.104-.541a11.81 11.81 0 0 0 .14-.629c.151-.64.46-1.111.925-1.414.477-.314 1.094-.471 1.851-.471h2.723v5.01c0 .617-.146 1.047-.437 1.292-.29.232-.721.36-1.291.384Z"/>
  <path fill="#7C7C7C" d="M699.774 283.866v-9.165h1.362l3.548 6.677h.078l3.561-6.677h1.336v9.165h-.904v-8.026h-.078l-3.522 6.573h-.89l-3.509-6.573h-.079v8.026h-.903Zm12.003 0v-6.546h.864v6.546h-.864Zm-.066-7.842v-1.074h.982v1.074h-.982Zm5.732 8.012a3.228 3.228 0 0 1-1.689-.445 3.107 3.107 0 0 1-1.166-1.231c-.27-.523-.405-1.112-.405-1.767 0-.655.135-1.244.405-1.768.28-.523.668-.934 1.166-1.23a3.228 3.228 0 0 1 1.689-.445c.506 0 .986.104 1.44.314.454.201.803.515 1.047.942h.079v-3.705h.877v9.165h-.877v-1.087h-.079a2.266 2.266 0 0 1-1.047.956 3.517 3.517 0 0 1-1.44.301Zm.104-.825c.498 0 .93-.104 1.296-.314a2.19 2.19 0 0 0 .865-.916c.2-.402.301-.864.301-1.388 0-.786-.227-1.418-.681-1.899-.445-.48-1.039-.72-1.781-.72-.488 0-.921.11-1.296.328a2.2 2.2 0 0 0-.864.916c-.201.393-.301.851-.301 1.375 0 .785.223 1.418.668 1.898.454.48 1.051.72 1.793.72Zm8.181.825a3.228 3.228 0 0 1-1.689-.445 3.107 3.107 0 0 1-1.166-1.231c-.27-.523-.405-1.112-.405-1.767 0-.655.135-1.244.405-1.768.28-.523.668-.934 1.166-1.23a3.228 3.228 0 0 1 1.689-.445c.506 0 .986.104 1.44.314.454.201.803.515 1.047.942h.079v-3.705h.877v9.165h-.877v-1.087h-.079a2.266 2.266 0 0 1-1.047.956 3.517 3.517 0 0 1-1.44.301Zm.104-.825c.498 0 .93-.104 1.297-.314.375-.218.663-.524.864-.916.2-.402.301-.864.301-1.388 0-.786-.227-1.418-.681-1.899-.445-.48-1.039-.72-1.781-.72-.488 0-.92.11-1.296.328a2.2 2.2 0 0 0-.864.916c-.201.393-.301.851-.301 1.375 0 .785.223 1.418.668 1.898.454.48 1.051.72 1.793.72Zm5.405.655v-9.165h.864v9.165h-.864Zm5.86.17c-.654 0-1.239-.144-1.754-.432a3.236 3.236 0 0 1-1.218-1.231c-.288-.523-.432-1.117-.432-1.78s.144-1.257.432-1.781a3.103 3.103 0 0 1 1.179-1.217 3.325 3.325 0 0 1 1.715-.445c.681 0 1.283.165 1.807.497.532.332.925.781 1.178 1.349.253.558.336 1.165.249 1.819h-6.088v-.785h5.682l-.38.393c0-.48-.1-.908-.301-1.283a2.149 2.149 0 0 0-.864-.878c-.367-.209-.794-.314-1.283-.314-.48 0-.904.109-1.27.328-.367.209-.65.515-.851.916-.201.402-.301.868-.301 1.401 0 .803.227 1.444.681 1.924.462.481 1.069.721 1.819.721.524 0 .978-.118 1.362-.354.393-.236.668-.554.825-.956h.838a2.476 2.476 0 0 1-.576 1.1 3.106 3.106 0 0 1-1.061.746 3.565 3.565 0 0 1-1.388.262Z"/>
  <path fill="#282725" d="M1249.33 282.316c-1.54.291-2.71.454-3.51.489-.8.023-1.43-.152-1.89-.524-.44-.384-.66-1.071-.66-2.06 0-1.152.17-1.99.52-2.514.36-.535.87-.849 1.52-.942.67-.105 1.54-.076 2.64.087l-.21 1.169a17.85 17.85 0 0 0-1.83-.104c-.56 0-1.03.046-1.42.139-.07.105-.14.326-.21.664-.06.326-.08.681-.08 1.065 0 .779.16 1.32.5 1.623.34.303.8.454 1.38.454.59-.012 1.49-.099 2.69-.262.22-.035.45-.064.68-.087l-.12.803Zm-1.89 7.157c-.92 0-1.69-.111-2.32-.332-.63-.209-1.12-.564-1.47-1.065-.33-.488-.5-1.146-.5-1.972 0-.082.08-.169.24-.262.18-.093.34-.14.49-.14.16 0 .25.064.25.192 0 .64.16 1.123.5 1.449.34.326.75.53 1.24.611.49.093 1.05.14 1.69.14.94 0 2.08-.116 3.43-.349l.15 1.169c-.65.163-1.32.297-2 .402-.68.105-1.24.157-1.7.157Zm-4.29-3.369c0-.396.01-.722.03-.978.08-.745.28-1.309.58-1.693.3-.384.83-.698 1.57-.943.74-.244 1.98-.547 3.72-.907.13-.024.26-.047.4-.07l-.09 1.082c-.95.186-1.88.396-2.77.629-.89.232-1.59.448-2.12.645-.05.024-.1.047-.14.07-.02.012-.07.029-.13.053-.02.174-.02.314-.02.419-.01.244-.03.739-.05 1.483 0 .07-.09.134-.25.192-.15.07-.31.105-.49.105-.16.012-.24-.017-.24-.087Zm11.22-.559c-.78 0-1.38-.145-1.78-.436-.41-.303-.58-.832-.51-1.589l.49-4.696h1.43c1.12 0 1.97.216 2.55.646.58.431.97 1.054 1.17 1.868.2.815.3 1.909.31 3.282l-.9.908v-.349c-.02-1.292-.09-2.276-.21-2.951-.13-.675-.42-1.198-.86-1.571-.44-.372-1.13-.558-2.06-.558h-.66l-.35 3.928c.36.093.95.139 1.78.139.69 0 1.4-.035 2.13-.105l.59-.052v1.257c-.08.023-.16.041-.24.052-.07 0-.15.006-.25.018-.37.058-.79.104-1.25.139-.46.047-.92.07-1.38.07Zm-2.22 2.235c1.46-.21 2.56-.454 3.3-.734.76-.267 1.32-.587 1.68-.96v-1.518c0-.117.07-.233.22-.349.17-.128.32-.169.46-.123.15.035.22.21.22.524 0 .85-.11 1.536-.33 2.06-.22.524-.74.995-1.55 1.414-.82.419-2.07.756-3.77 1.012l-.23-1.326Zm6.43 0c.98-.198 1.83-.46 2.53-.786.7-.314 1.21-.652 1.55-1.012.35-.361.53-.693.54-.995l.02-.751c.02-.07.1-.204.24-.402.15-.197.29-.331.42-.401s.19.012.19.244c0 .85-.09 1.595-.29 2.235-.19.64-.67 1.257-1.43 1.85-.76.594-1.93 1.042-3.51 1.344l-.26-1.326Zm4.15-7.978 1.19-.105c.1 1.792.15 3.119.15 3.98 0 .559-.06 1.001-.19 1.327-.11.326-.25.547-.4.663-.15.128-.27.198-.35.21l-.4-6.075Zm3.68 5.656c-.49 0-.9-.029-1.24-.087-.32-.07-.61-.198-.85-.384-.25-.198-.43-.489-.56-.873-.09-.28-.15-.565-.17-.856-.03-.291-.04-.68-.04-1.169 0-.186-.01-.32-.02-.402v-.401l.46-.419.05 1.152c.02.582.11 1.018.26 1.309.15.291.39.495.7.611.33.105.8.157 1.41.157l.18.175v1.012l-.18.175Zm11.79.035c-.41 0-.87-.064-1.4-.192a5.289 5.289 0 0 1-1.39-.559c-.41-.244-.67-.523-.77-.838a1.341 1.341 0 0 1-.04-.279c.02-.093.04-.192.07-.297.06-.128.12-.233.16-.314.32.233.69.442 1.14.628.44.175.92.315 1.43.419.51.094 1 .134 1.48.123l-.16-5.307 1.21-.053v4.766c0 .489-.05.867-.14 1.135-.09.267-.27.465-.52.593-.25.117-.6.175-1.07.175Zm-11.78-1.397h.24c.64 0 1.19-.058 1.66-.174.48-.117.84-.297 1.1-.541v-3.963h1.05v2.479c0 .873-.15 1.571-.44 2.095-.28.512-.71.884-1.31 1.117-.58.233-1.35.349-2.3.349v-1.362Zm5.79 1.397c-.75 0-1.38-.192-1.86-.576-.48-.384-.72-.896-.72-1.536v-3.893h.84v2.985c0 .547.14.954.43 1.222.31.268.78.401 1.44.401l-.13 1.397Zm0 0c-.04 0-.1-.122-.17-.367a1.9 1.9 0 0 1-.05-.698c.03-.221.15-.332.35-.332.46 0 .87-.04 1.23-.122.38-.081.66-.204.86-.366v-4.207h1.05v3.91c0 .384-.13.745-.39 1.082-.24.326-.61.594-1.1.803-.48.198-1.08.297-1.78.297Zm2.76-9.182h2.04v1.344h-2.04v-1.344Zm-2.06 0h2.06v1.344h-2.06v-1.344Zm1.35-1.432h1.43v1.432h-1.43v-1.432Zm-54.59 21.604h1.31l-.14 8.169-1.04.175-.13-8.344Zm.65 12.097c-.29 0-.54-.105-.75-.314a1.03 1.03 0 0 1-.32-.751c0-.302.11-.558.32-.768.21-.209.46-.314.75-.314s.54.105.75.314c.22.21.33.46.33.751 0 .302-.11.558-.33.768-.21.209-.46.314-.75.314Zm9.31.053c-1.31 0-2.33-.123-3.07-.367-.74-.256-1.25-.617-1.54-1.082-.29-.466-.44-1.042-.44-1.729 0-.325.02-.756.06-1.291.03-.536.07-1.013.1-1.432l.93.07-.04.419a26.169 26.169 0 0 0-.07 1.763c0 .582.13 1.036.4 1.362.27.326.74.564 1.4.715.66.14 1.6.21 2.83.21 1.11 0 2.21-.058 3.28-.175 1.08-.116 2-.302 2.76-.558l-.18-3.98 1.19-.088v3.143c0 .349-.03.64-.09.872a1.41 1.41 0 0 1-.31.646c-.15.198-.39.378-.7.541-.7.384-1.65.64-2.85.768-1.19.129-2.42.193-3.66.193Zm9.77-.175c-.58-.012-1.07-.087-1.48-.227-.41-.14-.74-.361-1-.663-.24-.303-.36-.681-.36-1.135v-3.282l.68.105v1.99c0 .442.07.797.23 1.065.15.267.39.465.73.593.34.128.8.192 1.38.192l.17.175v1.012l-.17.175h-.18Zm-8.39-7.629v1.362H1229v-1.362h2.01Zm2 0v1.362h-2v-1.362h2Zm6.57 6.267h.25c.56 0 1.07-.069 1.54-.209.47-.14.8-.309.97-.506l-.14-4.225 1.19-.052v3.002c0 .792-.14 1.438-.44 1.938-.29.489-.71.85-1.27 1.082-.56.221-1.26.332-2.1.332v-1.362Zm6.04 1.362a7.36 7.36 0 0 1-1.36-.157 2.382 2.382 0 0 1-1.11-.629c-.33-.325-.49-.779-.49-1.361v-3.701h.73v2.671c0 .71.2 1.193.59 1.449.41.244 1 .366 1.77.366l.17.175v1.012l-.17.175h-.13Zm-2.95 1.414v1.362h-2v-1.362h2Zm2.01 0v1.362h-2.01v-1.362h2.01Zm7.41-3.23c-.08.059-.15.07-.21.035a.784.784 0 0 1-.12-.227 1.193 1.193 0 0 1-.05-.331l.03-.611c.05-.71.04-1.263-.03-1.659-.07-.395-.29-.715-.65-.96-.35-.244-.9-.366-1.67-.366-.18.244-.37.646-.58 1.204-.2.547-.37 1.106-.52 1.676-.03.14-.05.268-.07.384-.03.105-.05.221-.07.349-.03.152-.11.245-.25.28a.874.874 0 0 1-.42-.035c-.12-.059-.19-.128-.19-.21-.01-.43.08-.989.28-1.676.2-.698.44-1.344.74-1.937.17-.373.36-.646.57-.821.21-.174.42-.285.63-.332.22-.058.5-.081.84-.069h.03c.43.023.82.157 1.17.401.36.233.65.582.86 1.048.21.465.31 1.024.31 1.675 0 .466-.04.879-.14 1.24-.09.361-.25.675-.49.942Zm-6.35.454h.8c.36 0 .62-.005.79-.017 1.09-.047 2-.169 2.72-.367.73-.198 1.33-.483 1.78-.855.19-.14.31-.157.37-.052.06.093.07.238.03.436-.03.198-.08.332-.14.401-.19.233-.46.443-.78.629-.33.186-.7.361-1.12.524-.57.232-1.23.401-1.99.506-.74.093-1.56.145-2.46.157v-1.362Zm8.43 1.362c-.79 0-1.54-.035-2.25-.105-.71-.081-1.36-.192-1.94-.331-.58-.152-1.08-.332-1.48-.542a3.234 3.234 0 0 1-.89-.611c-.21-.221-.32-.453-.32-.698 0-.151.05-.262.14-.332a.41.41 0 0 1 .32-.069c.1.011.17.046.21.104.22.221.58.425 1.1.611.52.187 1.21.338 2.06.454.86.105 1.88.157 3.05.157l.18.175v1.012l-.18.175Zm-4.12-10.177v1.361h-2.01v-1.361h2.01Zm2.01 0v1.361h-2.01v-1.361h2.01Zm8.18 7.454c.01-1.327-.03-2.316-.13-2.968-.08-.652-.31-1.169-.68-1.554-.37-.384-.98-.576-1.83-.576h-.89l-.26 3.439c.32.07.81.105 1.46.105a17.219 17.219 0 0 0 2.26-.174c.11-.024.22-.041.33-.053l.12 1.187a3.05 3.05 0 0 1-.26.087c-.08.012-.18.03-.28.053-.36.07-.76.134-1.21.192-.43.046-.79.07-1.08.07-.77 0-1.35-.146-1.76-.437-.41-.302-.57-.826-.49-1.571l.4-4.137h1.66c.99 0 1.74.209 2.25.628.52.408.87.984 1.05 1.729.17.733.27 1.699.28 2.897l-.94 2.27v-1.187Zm-6.06 1.361c1.6 0 2.88-.04 3.84-.122.96-.093 1.72-.262 2.27-.506v-1.187c0-.082.07-.21.22-.384.16-.186.3-.314.44-.384.15-.07.23-.024.23.139 0 .838-.05 1.467-.14 1.886-.1.407-.3.733-.61.977-.31.233-.8.425-1.49.576-.56.128-1.22.221-1.99.28-.76.058-1.69.087-2.77.087v-1.362Zm3.96-10.927v1.501h-1.45v-1.501h1.45Zm10.82 12.01c-.01-1.269-.08-2.241-.21-2.916-.13-.675-.42-1.204-.88-1.588-.44-.384-1.12-.576-2.04-.576h-.66l-.35 3.928c.36.093.95.139 1.78.139.75 0 1.47-.023 2.18-.07.19-.011.37-.017.54-.017v1.274c-.17.012-.42.035-.73.07-.34.023-.72.047-1.15.07-.42.035-.83.052-1.24.052-.78 0-1.37-.145-1.78-.436-.41-.303-.58-.832-.51-1.589l.49-4.696h1.43c1.12 0 1.97.222 2.55.664.58.43.97 1.059 1.17 1.885.2.815.3 1.897.31 3.247l-.9.908v-.349Zm-4.98 2.601c1.46-.21 2.56-.454 3.3-.734.76-.267 1.32-.587 1.68-.96v-1.518c0-.117.07-.233.22-.349.17-.128.32-.169.46-.123.15.035.22.21.22.524 0 .85-.11 1.536-.33 2.06-.22.524-.74.995-1.55 1.414-.82.419-2.07.756-3.77 1.012l-.23-1.326Zm5.47-3.684h1.95l.18.157v1.03l-.18.175h-1.95v-1.362Zm8.75 1.414c-.35.012-.85-.046-1.5-.174a8.79 8.79 0 0 1-1.78-.541c-.52-.233-.82-.489-.89-.768a1.54 1.54 0 0 1-.02-.699c.03-.116.05-.233.07-.349l.16.087c.58.315 1.29.576 2.11.786.83.209 1.7.332 2.62.367v-4.12h-2.36c-.39 0-.71.122-.94.366-.23.233-.39.571-.49 1.013l-.42 1.885c-.15.687-.49 1.21-1.03 1.571-.52.349-1.14.524-1.85.524h-.47v-1.362h.44c.59 0 1.03-.064 1.31-.192.29-.139.49-.331.61-.576.12-.256.24-.669.37-1.239l.05-.21c.03-.139.07-.32.1-.541.03-.093.05-.192.07-.297.03-.104.05-.215.07-.331.15-.64.46-1.112.93-1.414.47-.314 1.09-.472 1.85-.472h2.72v5.01c0 .617-.14 1.048-.44 1.292-.29.233-.72.361-1.29.384Z"/>
  <path fill="#7C7C7C" d="M1146.51 327.913v-7.402h-2.95v-.745h6.71v.745h-2.95v7.402h-.81Zm4.85 0v-8.147h.77v3.038h.07c.18-.287.43-.501.74-.64.31-.148.66-.221 1.04-.221.46 0 .85.096 1.19.29.34.194.6.478.79.85.18.372.28.811.28 1.315v3.515h-.77v-3.492c0-.558-.15-.989-.44-1.291-.29-.303-.7-.454-1.23-.454-.52 0-.93.155-1.23.465-.29.303-.44.729-.44 1.28v3.492h-.77Zm9.22.151c-.58 0-1.1-.128-1.56-.384a2.831 2.831 0 0 1-1.08-1.094c-.26-.466-.38-.993-.38-1.583 0-.589.12-1.117.38-1.582.26-.466.6-.827 1.05-1.083a2.93 2.93 0 0 1 1.52-.395c.61 0 1.14.147 1.61.442.47.295.82.694 1.04 1.198.23.497.3 1.036.23 1.618h-5.42v-.698h5.05l-.33.349c0-.427-.09-.807-.27-1.141a1.882 1.882 0 0 0-.77-.779c-.32-.186-.7-.28-1.14-.28-.43 0-.8.097-1.13.291-.32.187-.58.458-.75.815-.18.357-.27.772-.27 1.245 0 .714.2 1.284.6 1.711.41.427.95.64 1.62.64.47 0 .87-.105 1.21-.314.35-.21.59-.493.73-.85h.75c-.09.365-.26.691-.51.978-.26.279-.57.5-.95.663-.37.155-.78.233-1.23.233Zm10 0c-.46 0-.89-.089-1.29-.268-.4-.186-.71-.469-.93-.849h-.07v.966h-.77v-8.147h.77v3.294h.07c.22-.38.53-.66.93-.838.4-.186.83-.279 1.29-.279.56 0 1.06.131 1.49.395.44.264.78.629 1.03 1.094.24.466.37.989.37 1.571a3.38 3.38 0 0 1-.37 1.571c-.25.466-.59.83-1.03 1.094-.43.264-.93.396-1.49.396Zm-.1-.733c.44 0 .82-.093 1.15-.28.33-.193.59-.465.77-.814.18-.357.26-.768.26-1.234 0-.698-.2-1.261-.6-1.687-.4-.427-.92-.64-1.58-.64-.44 0-.82.097-1.16.291-.32.186-.58.457-.76.814-.18.349-.27.757-.27 1.222 0 .698.2 1.261.59 1.688.41.426.94.64 1.6.64Zm7 .733c-.58 0-1.1-.128-1.56-.384a2.831 2.831 0 0 1-1.08-1.094 3.191 3.191 0 0 1-.39-1.583c0-.589.13-1.117.39-1.582.25-.466.6-.827 1.05-1.083a2.93 2.93 0 0 1 1.52-.395c.61 0 1.14.147 1.61.442.47.295.82.694 1.04 1.198.23.497.3 1.036.23 1.618h-5.42v-.698h5.05l-.33.349c0-.427-.09-.807-.27-1.141a1.944 1.944 0 0 0-.77-.779c-.32-.186-.7-.28-1.14-.28-.43 0-.8.097-1.13.291-.32.187-.58.458-.75.815-.18.357-.27.772-.27 1.245 0 .714.2 1.284.6 1.711.41.427.95.64 1.62.64.47 0 .87-.105 1.21-.314.35-.21.59-.493.73-.85h.75c-.09.365-.26.691-.51.978-.26.279-.57.5-.95.663-.37.155-.78.233-1.23.233Zm6.74 2.293c-.54 0-1.02-.082-1.43-.245-.4-.163-.72-.388-.94-.675a1.544 1.544 0 0 1-.36-.966h.76c.05.349.24.629.59.838.34.21.81.314 1.4.314.69 0 1.2-.166 1.52-.5.32-.326.49-.853.49-1.583v-.721h-.07c-.22.38-.52.663-.91.849-.39.179-.81.268-1.25.268-.54 0-1.03-.128-1.46-.384a2.725 2.725 0 0 1-1-1.082 3.15 3.15 0 0 1-.37-1.537c0-.566.12-1.074.37-1.524.24-.458.57-.815 1-1.071.43-.264.92-.395 1.46-.395.44 0 .86.093 1.25.279.39.178.69.458.91.838h.07v-.966h.76v5.504c0 .9-.24 1.583-.72 2.049-.48.473-1.17.71-2.07.71Zm-.09-3.154c.42 0 .78-.093 1.1-.28.33-.194.58-.461.75-.803.18-.341.27-.737.27-1.187 0-.675-.2-1.218-.59-1.629-.38-.419-.89-.628-1.53-.628-.43 0-.8.093-1.12.279-.32.186-.57.454-.75.803-.17.341-.26.733-.26 1.175 0 .683.19 1.234.58 1.653.39.411.9.617 1.55.617Zm4.65.71v-5.819h.77v5.819h-.77Zm-.05-6.971v-.955h.87v.955h-.87Zm2.59 6.971v-5.819h.77v.71h.07c.18-.287.43-.501.74-.64.31-.148.66-.221 1.04-.221.45 0 .85.096 1.18.29.35.194.61.478.8.85.18.372.27.811.27 1.315v3.515h-.76v-3.492c0-.558-.15-.989-.45-1.291-.28-.303-.69-.454-1.22-.454s-.94.155-1.23.465c-.3.303-.44.729-.44 1.28v3.492h-.77Zm6.59 0v-5.819h.77v.71h.07c.18-.287.43-.501.74-.64.31-.148.66-.221 1.04-.221.46 0 .85.096 1.19.29.34.194.6.478.79.85.18.372.28.811.28 1.315v3.515h-.77v-3.492c0-.558-.15-.989-.44-1.291-.29-.303-.7-.454-1.23-.454-.52 0-.93.155-1.23.465-.29.303-.44.729-.44 1.28v3.492h-.77Zm6.59 0v-5.819h.77v5.819h-.77Zm-.06-6.971v-.955h.88v.955h-.88Zm2.6 6.971v-5.819h.76v.71h.07c.19-.287.44-.501.75-.64a2.35 2.35 0 0 1 1.03-.221c.46 0 .86.096 1.19.29.34.194.61.478.79.85.19.372.28.811.28 1.315v3.515h-.77v-3.492c0-.558-.14-.989-.44-1.291-.29-.303-.69-.454-1.22-.454s-.94.155-1.23.465c-.3.303-.45.729-.45 1.28v3.492h-.76Zm9.22 2.444c-.55 0-1.02-.082-1.43-.245-.41-.163-.72-.388-.95-.675a1.67 1.67 0 0 1-.36-.966h.77c.05.349.24.629.58.838.34.21.81.314 1.41.314.69 0 1.2-.166 1.51-.5.33-.326.49-.853.49-1.583v-.721h-.07c-.21.38-.52.663-.9.849-.39.179-.81.268-1.25.268a2.87 2.87 0 0 1-1.47-.384 2.798 2.798 0 0 1-1-1.082 3.26 3.26 0 0 1-.36-1.537c0-.566.12-1.074.36-1.524.24-.458.58-.815 1-1.071.44-.264.93-.395 1.47-.395.44 0 .86.093 1.25.279.38.178.69.458.9.838h.07v-.966h.77v5.504c0 .9-.24 1.583-.72 2.049-.48.473-1.17.71-2.07.71Zm-.1-3.154c.42 0 .79-.093 1.11-.28.33-.194.57-.461.75-.803.17-.341.26-.737.26-1.187 0-.675-.19-1.218-.58-1.629-.38-.419-.89-.628-1.54-.628-.42 0-.79.093-1.11.279-.32.186-.57.454-.75.803-.18.341-.26.733-.26 1.175 0 .683.19 1.234.58 1.653.38.411.9.617 1.54.617Zm10.09.861c-.58 0-1.1-.128-1.56-.384a2.831 2.831 0 0 1-1.08-1.094 3.191 3.191 0 0 1-.39-1.583c0-.589.13-1.117.39-1.582.26-.466.62-.827 1.08-1.083.46-.264.98-.395 1.56-.395.58 0 1.1.131 1.56.395.45.256.81.617 1.07 1.083.26.457.39.985.39 1.582 0 .598-.13 1.129-.39 1.595-.26.457-.62.818-1.07 1.082-.46.256-.98.384-1.56.384Zm0-.733c.44 0 .83-.093 1.16-.28.34-.193.6-.465.78-.814.19-.357.28-.768.28-1.234 0-.706-.2-1.268-.6-1.687-.41-.427-.95-.64-1.62-.64-.44 0-.83.097-1.17.291-.33.186-.59.457-.78.814-.18.349-.28.757-.28 1.222 0 .706.21 1.273.61 1.699.41.419.95.629 1.62.629Zm4.98-6.296c0-.458.1-.784.3-.978.2-.194.53-.291 1.01-.291h1.07v.71h-1.03c-.21 0-.36.043-.45.128-.08.078-.13.229-.13.454v6.855h-.77v-6.878Zm-1.3 1.769v-.71h3.68v.71h-3.68Zm9.66 5.26c-.52 0-.97-.082-1.36-.244-.38-.171-.68-.404-.89-.699a1.785 1.785 0 0 1-.33-1.012h.75c.05.38.23.679.54.896.31.217.74.326 1.3.326.48 0 .86-.082 1.14-.245.29-.163.43-.419.43-.768a.8.8 0 0 0-.16-.512c-.1-.139-.27-.252-.5-.337a4.622 4.622 0 0 0-.92-.21c-.54-.077-.99-.186-1.33-.326-.34-.139-.59-.322-.77-.547a1.367 1.367 0 0 1-.24-.814c0-.342.09-.633.28-.873.19-.248.46-.435.79-.559a3.2 3.2 0 0 1 1.16-.197c.47 0 .88.077 1.24.232.36.155.65.377.86.664.22.279.34.601.36.966h-.76a1.07 1.07 0 0 0-.5-.827c-.28-.201-.69-.302-1.22-.302-.46 0-.81.073-1.05.221a.708.708 0 0 0-.36.64c0 .194.06.361.18.5.11.132.29.241.53.326.25.086.58.155.99.21.77.093 1.33.279 1.69.558.36.272.54.656.54 1.152 0 .381-.11.703-.31.966-.2.264-.48.466-.85.605-.35.14-.76.21-1.23.21Zm6 0c-.45 0-.84-.097-1.19-.291a2.02 2.02 0 0 1-.78-.85c-.17-.372-.26-.81-.26-1.315v-3.514h.77v3.491c0 .559.14.989.43 1.292.28.302.69.454 1.22.454s.93-.152 1.22-.454c.29-.31.43-.741.43-1.292v-3.491h.77v5.819h-.77v-.71h-.07c-.18.287-.43.504-.74.651-.31.14-.66.21-1.03.21Zm6.98 0c-.58 0-1.1-.128-1.56-.384a2.85 2.85 0 0 1-1.06-1.094c-.25-.466-.37-.993-.37-1.583 0-.589.13-1.113.38-1.571.26-.465.62-.83 1.07-1.094.46-.264.98-.395 1.55-.395.49 0 .93.096 1.34.29.4.187.74.454 1 .803.26.35.42.753.48 1.211h-.76c-.1-.505-.34-.892-.72-1.164-.38-.272-.83-.407-1.34-.407-.44 0-.83.097-1.16.291-.33.194-.59.465-.77.814-.18.349-.27.757-.27 1.222 0 .698.2 1.261.59 1.688.41.426.94.64 1.6.64.53 0 .99-.14 1.36-.419.38-.287.62-.675.71-1.164h.76c-.05.45-.21.85-.47 1.199-.26.349-.59.624-1.01.826-.41.194-.86.291-1.35.291Zm6.64 0c-.59 0-1.11-.128-1.56-.384a2.781 2.781 0 0 1-1.06-1.094 3.296 3.296 0 0 1-.38-1.583c0-.589.13-1.113.39-1.571.26-.465.62-.83 1.07-1.094a3.04 3.04 0 0 1 1.55-.395c.49 0 .93.096 1.34.29.4.187.73.454 1 .803.26.35.42.753.47 1.211h-.75c-.1-.505-.34-.892-.72-1.164a2.27 2.27 0 0 0-1.34-.407c-.45 0-.83.097-1.17.291a2.12 2.12 0 0 0-.77.814c-.17.349-.26.757-.26 1.222 0 .698.2 1.261.59 1.688.4.426.94.64 1.6.64.53 0 .98-.14 1.36-.419.38-.287.61-.675.71-1.164h.75c-.04.45-.2.85-.46 1.199-.26.349-.6.624-1.01.826a3.18 3.18 0 0 1-1.35.291Zm6.67 0c-.58 0-1.1-.128-1.56-.384a2.831 2.831 0 0 1-1.08-1.094 3.191 3.191 0 0 1-.39-1.583c0-.589.13-1.117.39-1.582.25-.466.6-.827 1.04-1.083.45-.264.96-.395 1.53-.395.6 0 1.14.147 1.6.442a2.6 2.6 0 0 1 1.05 1.198c.23.497.3 1.036.22 1.618h-5.41v-.698h5.05l-.34.349c0-.427-.09-.807-.26-1.141a1.944 1.944 0 0 0-.77-.779c-.33-.186-.71-.28-1.14-.28-.43 0-.81.097-1.13.291-.33.187-.58.458-.76.815-.18.357-.27.772-.27 1.245 0 .714.21 1.284.61 1.711.41.427.95.64 1.62.64.46 0 .87-.105 1.21-.314.35-.21.59-.493.73-.85h.75c-.09.365-.26.691-.52.978-.25.279-.57.5-.94.663-.37.155-.78.233-1.23.233Zm6.24 0c-.52 0-.98-.082-1.37-.244a2.11 2.11 0 0 1-.88-.699 1.872 1.872 0 0 1-.34-1.012h.76c.05.38.22.679.53.896.31.217.75.326 1.31.326.48 0 .86-.082 1.14-.245.29-.163.43-.419.43-.768a.864.864 0 0 0-.16-.512c-.1-.139-.27-.252-.5-.337a4.797 4.797 0 0 0-.92-.21c-.55-.077-.99-.186-1.33-.326-.34-.139-.6-.322-.77-.547a1.367 1.367 0 0 1-.24-.814c0-.342.09-.633.28-.873.19-.248.45-.435.79-.559a3.2 3.2 0 0 1 1.16-.197c.47 0 .88.077 1.24.232.36.155.65.377.86.664.21.279.33.601.36.966h-.76c-.04-.35-.21-.625-.5-.827-.29-.201-.69-.302-1.22-.302-.46 0-.81.073-1.05.221a.708.708 0 0 0-.36.64c0 .194.06.361.17.5.12.132.3.241.54.326.25.086.58.155.99.21.77.093 1.33.279 1.69.558.35.272.53.656.53 1.152 0 .381-.1.703-.3.966-.2.264-.49.466-.85.605-.36.14-.77.21-1.23.21Zm5.95 0c-.52 0-.97-.082-1.36-.244-.38-.171-.68-.404-.88-.699a1.794 1.794 0 0 1-.34-1.012h.75c.05.38.23.679.54.896.31.217.74.326 1.3.326.48 0 .86-.082 1.14-.245.29-.163.43-.419.43-.768a.8.8 0 0 0-.16-.512c-.1-.139-.27-.252-.5-.337a4.622 4.622 0 0 0-.92-.21c-.54-.077-.98-.186-1.33-.326-.34-.139-.59-.322-.76-.547-.17-.225-.25-.496-.25-.814 0-.342.1-.633.28-.873.2-.248.46-.435.79-.559.34-.132.73-.197 1.17-.197.46 0 .87.077 1.23.232.36.155.65.377.86.664.22.279.34.601.36.966h-.75c-.04-.35-.21-.625-.5-.827-.29-.201-.7-.302-1.23-.302-.45 0-.8.073-1.04.221a.708.708 0 0 0-.36.64c0 .194.05.361.17.5.12.132.29.241.54.326.24.086.57.155.98.21.77.093 1.33.279 1.69.558.36.272.54.656.54 1.152 0 .381-.1.703-.31.966-.2.264-.48.466-.84.605-.36.14-.77.21-1.24.21Z"/>
  <defs>
    <linearGradient id="a" x1="-67" x2="1507" y1="196.27" y2="196.27" gradientUnits="userSpaceOnUse">
      <stop stop-color="#B2CF7B"/>
      <stop offset=".525" stop-color="#7E9BE7"/>
      <stop offset="1" stop-color="#F79967"/>
    </linearGradient>
    <linearGradient id="b" x1="164.5" x2="164.5" y1="333" y2="484.29" gradientUnits="userSpaceOnUse">
      <stop stop-color="#5E5E5E" stop-opacity="0"/>
      <stop offset=".507" stop-color="#5E5E5E"/>
      <stop offset="1" stop-color="#5E5E5E" stop-opacity="0"/>
    </linearGradient>
    <linearGradient id="c" x1="767.051" x2="767.051" y1="223.361" y2="374.652" gradientUnits="userSpaceOnUse">
      <stop stop-color="#5E5E5E" stop-opacity="0"/>
      <stop offset=".507" stop-color="#5E5E5E"/>
      <stop offset="1" stop-color="#5E5E5E" stop-opacity="0"/>
    </linearGradient>
    <linearGradient id="d" x1="1299.48" x2="1299.48" y1="154.99" y2="306.28" gradientUnits="userSpaceOnUse">
      <stop stop-color="#5E5E5E" stop-opacity="0"/>
      <stop offset=".507" stop-color="#5E5E5E"/>
      <stop offset="1" stop-color="#5E5E5E" stop-opacity="0"/>
    </linearGradient>
  </defs>
</svg>
