<svg version="1.1" id="Layer_1" xmlns="http://www.w3.org/2000/svg" xmlns:xlink="http://www.w3.org/1999/xlink" x="0px" y="0px"
	 width="100%" viewBox="0 0 1439 485" enable-background="new 0 0 1439 485" xml:space="preserve">
<path fill="#000000" opacity="1.000000" stroke="none" 
	d="
M1.000003,370.000000 
	C1.000000,247.026718 1.000000,124.053444 1.000000,1.053544 
	C480.666656,1.053544 960.333313,1.053544 1440.000000,1.053544 
	C1440.000000,41.764919 1440.000000,82.422752 1439.670166,123.646835 
	C1405.375977,169.631775 1363.640869,205.185974 1309.958618,225.806564 
	C1308.734131,225.000198 1307.310547,223.945145 1305.781372,223.076035 
	C1299.001953,219.222733 1291.400146,222.519211 1290.491577,228.208374 
	C1289.666504,233.373779 1286.838379,234.168274 1283.308838,234.894104 
	C1266.439819,238.362991 1249.605469,242.091980 1232.617310,244.858566 
	C1221.466675,246.674484 1210.083740,247.713898 1198.789551,247.851379 
	C1179.703735,248.083710 1160.576904,247.852127 1141.522339,246.809586 
	C1127.499512,246.042328 1113.541016,243.844376 1099.597168,241.963394 
	C1085.865112,240.111023 1072.034912,238.554657 1058.523560,235.605225 
	C1040.175659,231.600006 1021.640259,229.986496 1002.996277,229.097031 
	C997.429016,228.831451 991.794312,229.513138 986.216125,230.034973 
	C972.839050,231.286377 959.316528,231.824463 946.144714,234.241867 
	C922.868286,238.513794 900.122925,244.958542 877.734924,252.848297 
	C844.963928,264.397003 813.263794,278.415131 781.694702,292.786957 
	C778.770447,294.118256 776.651001,293.829834 773.999878,292.293610 
	C766.784180,288.112305 757.892456,292.268188 757.698120,300.249359 
	C757.662109,301.726288 756.141479,303.785675 754.753479,304.495087 
	C750.583923,306.626099 746.160034,308.269440 741.801941,310.019714 
	C720.160706,318.711060 698.664307,327.792664 676.820862,335.943298 
	C649.871521,345.999176 622.275574,354.050842 593.703064,358.008453 
	C576.039429,360.455078 558.296265,362.756378 540.511780,363.766663 
	C526.316284,364.573120 512.002686,363.387451 497.745178,362.962250 
	C493.477173,362.834961 489.193939,362.489227 484.965729,361.899475 
	C473.987335,360.368225 462.979431,358.946472 452.089813,356.911163 
	C442.086700,355.041504 432.222443,352.428741 424.450806,350.639282 
	C431.327179,342.917450 438.792633,335.230896 445.459961,326.905212 
	C460.322357,308.346069 467.788361,287.593262 461.959290,263.605255 
	C455.650299,237.642380 433.977051,221.011932 408.848145,219.083115 
	C391.386810,217.742828 375.632355,223.308929 361.488007,233.255096 
	C348.878906,242.121719 341.026276,254.429138 339.132965,269.716949 
	C336.700043,289.361816 344.878601,305.527435 358.007446,319.385193 
	C366.498352,328.347504 376.627441,335.336761 387.648926,340.884033 
	C395.144867,344.656891 402.869720,347.974915 410.666351,351.576752 
	C392.828308,363.626099 373.408112,372.320312 353.138214,378.868500 
	C337.283722,383.990265 321.042236,387.994049 304.828552,391.895660 
	C294.091644,394.479370 283.142059,396.284607 272.210724,397.925934 
	C260.891632,399.625458 249.497726,400.889160 238.103928,402.012787 
	C222.908661,403.511292 207.681915,404.690765 192.468658,406.006744 
	C190.666779,406.162598 188.866333,406.340302 187.062225,406.463867 
	C181.989441,406.811279 176.083084,409.662750 173.644089,401.984406 
	C173.487213,401.490540 172.632523,401.224030 172.111816,400.839111 
	C166.150574,396.432770 157.227448,398.247955 154.251022,407.406830 
	C148.848541,406.951569 143.287140,406.173309 137.713181,406.069733 
	C118.970306,405.721405 100.576958,402.920105 82.274910,399.063232 
	C62.695198,394.937134 43.645996,389.237244 25.364370,381.070862 
	C17.219637,377.432678 9.120071,373.693390 1.000003,370.000000 
z"/>
<path fill="#000000" opacity="1.000000" stroke="none" 
	d="
M1440.000000,133.999969 
	C1440.000000,251.307449 1440.000000,368.614899 1440.000000,485.947632 
	C960.333313,485.947632 480.666656,485.947632 1.000000,485.947632 
	C1.000000,449.570007 1.000000,413.244690 1.375974,376.460297 
	C16.548298,382.193817 31.071468,389.189728 46.221649,394.341888 
	C59.995682,399.026093 74.318497,402.424561 88.642921,405.072388 
	C103.721237,407.859619 119.075081,409.201324 134.335861,410.934082 
	C140.390396,411.621552 146.528198,411.552795 152.604065,412.096649 
	C153.705444,412.195221 154.658249,413.642700 155.734863,414.387604 
	C158.925659,416.595306 162.210312,420.614716 165.335846,420.502930 
	C169.777832,420.344086 174.575806,417.695984 175.860199,410.984222 
	C184.696671,410.984222 193.493378,411.552521 202.189377,410.858551 
	C217.366531,409.647339 232.494400,407.765869 247.618958,405.964081 
	C260.435394,404.437256 273.340607,403.254761 285.985596,400.787384 
	C303.174164,397.433441 320.271973,393.449066 337.193481,388.929321 
	C364.445221,381.650360 390.463623,371.256409 413.968719,355.351379 
	C416.487366,353.647095 418.385773,353.573090 420.987000,354.442566 
	C425.898376,356.084290 430.810303,358.042480 435.883209,358.827301 
	C457.009003,362.095703 478.122192,365.757294 499.383301,367.732544 
	C514.279175,369.116394 529.419800,368.389954 544.427124,367.888062 
	C557.063171,367.465485 569.726440,366.488098 582.263794,364.872650 
	C594.669189,363.274170 607.153503,361.396729 619.208740,358.168488 
	C640.942993,352.348389 662.711243,346.341522 683.859497,338.729614 
	C708.229309,329.958191 731.956726,319.397125 755.917175,309.502075 
	C757.972107,308.653412 759.148560,308.243225 761.371582,309.772614 
	C768.413818,314.617493 776.522705,312.117676 778.246887,304.277557 
	C779.335815,299.326294 782.209534,297.474762 786.183350,295.971924 
	C787.997925,295.285645 789.801819,294.563538 791.577087,293.781586 
	C807.890808,286.595764 824.020264,278.954285 840.544617,272.291962 
	C870.001587,260.415466 899.796204,249.514679 930.897827,242.467972 
	C952.199463,237.641663 973.707703,234.830444 995.478088,234.096970 
	C1003.885315,233.813721 1012.357544,234.350952 1020.751343,235.078506 
	C1029.862671,235.868271 1038.953247,237.089081 1047.986572,238.536057 
	C1057.775757,240.104126 1067.442261,242.462387 1077.245728,243.911194 
	C1090.667236,245.894699 1104.141846,247.596649 1117.640259,248.959290 
	C1133.494751,250.559784 1149.378296,252.178131 1165.288452,252.823334 
	C1177.515015,253.319153 1189.817017,252.585449 1202.058350,251.909393 
	C1213.693481,251.266800 1225.414429,250.718964 1236.880737,248.820175 
	C1254.006836,245.984146 1270.937744,241.974991 1287.970337,238.558273 
	C1289.173950,238.316833 1291.029663,238.363770 1291.730713,239.094040 
	C1294.751465,242.240417 1298.142090,244.262085 1302.515991,243.017838 
	C1307.427856,241.620575 1310.326172,238.275299 1311.282959,233.075851 
	C1311.541992,231.667633 1313.017456,230.021957 1314.365845,229.347076 
	C1327.282837,222.882294 1340.561157,217.092346 1353.209106,210.149246 
	C1370.164673,200.841568 1385.503906,189.112335 1399.570679,175.821838 
	C1406.759155,169.030151 1413.709595,161.974899 1420.547119,154.827789 
	C1424.397827,150.802750 1427.677856,146.236694 1431.445312,142.125381 
	C1434.095825,139.232788 1437.134521,136.695770 1440.000000,133.999969 
z"/>
<path fill="#92AFBD" opacity="1.000000" stroke="none" 
	d="
M1440.000000,133.545868 
	C1437.134521,136.695770 1434.095825,139.232788 1431.445312,142.125381 
	C1427.677856,146.236694 1424.397827,150.802750 1420.547119,154.827789 
	C1413.709595,161.974899 1406.759155,169.030151 1399.570679,175.821838 
	C1385.503906,189.112335 1370.164673,200.841568 1353.209106,210.149246 
	C1340.561157,217.092346 1327.282837,222.882294 1314.365845,229.347076 
	C1313.017456,230.021957 1311.541992,231.667633 1311.282959,233.075851 
	C1310.326172,238.275299 1307.427856,241.620575 1302.515991,243.017838 
	C1298.142090,244.262085 1294.751465,242.240417 1291.730713,239.094040 
	C1291.029663,238.363770 1289.173950,238.316833 1287.970337,238.558273 
	C1270.937744,241.974991 1254.006836,245.984146 1236.880737,248.820175 
	C1225.414429,250.718964 1213.693481,251.266800 1202.058350,251.909393 
	C1189.817017,252.585449 1177.515015,253.319153 1165.288452,252.823334 
	C1149.378296,252.178131 1133.494751,250.559784 1117.640259,248.959290 
	C1104.141846,247.596649 1090.667236,245.894699 1077.245728,243.911194 
	C1067.442261,242.462387 1057.775757,240.104126 1047.986572,238.536057 
	C1038.953247,237.089081 1029.862671,235.868271 1020.751343,235.078506 
	C1012.357544,234.350952 1003.885315,233.813721 995.478088,234.096970 
	C973.707703,234.830444 952.199463,237.641663 930.897827,242.467972 
	C899.796204,249.514679 870.001587,260.415466 840.544617,272.291962 
	C824.020264,278.954285 807.890808,286.595764 791.577087,293.781586 
	C789.801819,294.563538 787.997925,295.285645 786.183350,295.971924 
	C782.209534,297.474762 779.335815,299.326294 778.246887,304.277557 
	C776.522705,312.117676 768.413818,314.617493 761.371582,309.772614 
	C759.148560,308.243225 757.972107,308.653412 755.917175,309.502075 
	C731.956726,319.397125 708.229309,329.958191 683.859497,338.729614 
	C662.711243,346.341522 640.942993,352.348389 619.208740,358.168488 
	C607.153503,361.396729 594.669189,363.274170 582.263794,364.872650 
	C569.726440,366.488098 557.063171,367.465485 544.427124,367.888062 
	C529.419800,368.389954 514.279175,369.116394 499.383301,367.732544 
	C478.122192,365.757294 457.009003,362.095703 435.883209,358.827301 
	C430.810303,358.042480 425.898376,356.084290 420.987000,354.442566 
	C418.385773,353.573090 416.487366,353.647095 413.968719,355.351379 
	C390.463623,371.256409 364.445221,381.650360 337.193481,388.929321 
	C320.271973,393.449066 303.174164,397.433441 285.985596,400.787384 
	C273.340607,403.254761 260.435394,404.437256 247.618958,405.964081 
	C232.494400,407.765869 217.366531,409.647339 202.189377,410.858551 
	C193.493378,411.552521 184.696671,410.984222 175.860199,410.984222 
	C174.575806,417.695984 169.777832,420.344086 165.335846,420.502930 
	C162.210312,420.614716 158.925659,416.595306 155.734863,414.387604 
	C154.658249,413.642700 153.705444,412.195221 152.604065,412.096649 
	C146.528198,411.552795 140.390396,411.621552 134.335861,410.934082 
	C119.075081,409.201324 103.721237,407.859619 88.642921,405.072388 
	C74.318497,402.424561 59.995682,399.026093 46.221649,394.341888 
	C31.071468,389.189728 16.548298,382.193817 1.375974,376.000610 
	C1.000000,374.285645 1.000000,372.571289 1.000003,370.428467 
	C9.120071,373.693390 17.219637,377.432678 25.364370,381.070862 
	C43.645996,389.237244 62.695198,394.937134 82.274910,399.063232 
	C100.576958,402.920105 118.970306,405.721405 137.713181,406.069733 
	C143.287140,406.173309 148.848541,406.951569 154.251022,407.406830 
	C157.227448,398.247955 166.150574,396.432770 172.111816,400.839111 
	C172.632523,401.224030 173.487213,401.490540 173.644089,401.984406 
	C176.083084,409.662750 181.989441,406.811279 187.062225,406.463867 
	C188.866333,406.340302 190.666779,406.162598 192.468658,406.006744 
	C207.681915,404.690765 222.908661,403.511292 238.103928,402.012787 
	C249.497726,400.889160 260.891632,399.625458 272.210724,397.925934 
	C283.142059,396.284607 294.091644,394.479370 304.828552,391.895660 
	C321.042236,387.994049 337.283722,383.990265 353.138214,378.868500 
	C373.408112,372.320312 392.828308,363.626099 410.666351,351.576752 
	C402.869720,347.974915 395.144867,344.656891 387.648926,340.884033 
	C376.627441,335.336761 366.498352,328.347504 358.007446,319.385193 
	C344.878601,305.527435 336.700043,289.361816 339.132965,269.716949 
	C341.026276,254.429138 348.878906,242.121719 361.488007,233.255096 
	C375.632355,223.308929 391.386810,217.742828 408.848145,219.083115 
	C433.977051,221.011932 455.650299,237.642380 461.959290,263.605255 
	C467.788361,287.593262 460.322357,308.346069 445.459961,326.905212 
	C438.792633,335.230896 431.327179,342.917450 424.450806,350.639282 
	C432.222443,352.428741 442.086700,355.041504 452.089813,356.911163 
	C462.979431,358.946472 473.987335,360.368225 484.965729,361.899475 
	C489.193939,362.489227 493.477173,362.834961 497.745178,362.962250 
	C512.002686,363.387451 526.316284,364.573120 540.511780,363.766663 
	C558.296265,362.756378 576.039429,360.455078 593.703064,358.008453 
	C622.275574,354.050842 649.871521,345.999176 676.820862,335.943298 
	C698.664307,327.792664 720.160706,318.711060 741.801941,310.019714 
	C746.160034,308.269440 750.583923,306.626099 754.753479,304.495087 
	C756.141479,303.785675 757.662109,301.726288 757.698120,300.249359 
	C757.892456,292.268188 766.784180,288.112305 773.999878,292.293610 
	C776.651001,293.829834 778.770447,294.118256 781.694702,292.786957 
	C813.263794,278.415131 844.963928,264.397003 877.734924,252.848297 
	C900.122925,244.958542 922.868286,238.513794 946.144714,234.241867 
	C959.316528,231.824463 972.839050,231.286377 986.216125,230.034973 
	C991.794312,229.513138 997.429016,228.831451 1002.996277,229.097031 
	C1021.640259,229.986496 1040.175659,231.600006 1058.523560,235.605225 
	C1072.034912,238.554657 1085.865112,240.111023 1099.597168,241.963394 
	C1113.541016,243.844376 1127.499512,246.042328 1141.522339,246.809586 
	C1160.576904,247.852127 1179.703735,248.083710 1198.789551,247.851379 
	C1210.083740,247.713898 1221.466675,246.674484 1232.617310,244.858566 
	C1249.605469,242.091980 1266.439819,238.362991 1283.308838,234.894104 
	C1286.838379,234.168274 1289.666504,233.373779 1290.491577,228.208374 
	C1291.400146,222.519211 1299.001953,219.222733 1305.781372,223.076035 
	C1307.310547,223.945145 1308.734131,225.000198 1309.958618,225.806564 
	C1363.640869,205.185974 1405.375977,169.631775 1439.670166,124.106537 
	C1440.000000,127.030594 1440.000000,130.061188 1440.000000,133.545868 
M368.415009,234.931305 
	C363.424835,239.301941 357.808105,243.142929 353.573608,248.152359 
	C344.474304,258.916809 342.011047,271.677521 344.830200,285.418823 
	C348.728302,304.419159 360.662872,317.872955 376.304443,327.844543 
	C388.810822,335.817444 402.383545,342.117706 416.093994,349.488831 
	C425.120789,340.433075 433.754639,332.552307 441.459320,323.848969 
	C451.613861,312.378296 457.820221,298.641754 458.833099,283.350189 
	C460.119904,263.923553 453.348083,247.430634 437.670105,235.202011 
	C428.410980,227.979996 417.902405,224.219086 406.088287,223.967606 
	C392.618713,223.680893 380.425049,227.641907 368.415009,234.931305 
z"/>
<path fill="#000000" opacity="1.000000" stroke="none" 
	d="
M368.714050,234.706940 
	C380.425049,227.641907 392.618713,223.680893 406.088287,223.967606 
	C417.902405,224.219086 428.410980,227.979996 437.670105,235.202011 
	C453.348083,247.430634 460.119904,263.923553 458.833099,283.350189 
	C457.820221,298.641754 451.613861,312.378296 441.459320,323.848969 
	C433.754639,332.552307 425.120789,340.433075 416.093994,349.488831 
	C402.383545,342.117706 388.810822,335.817444 376.304443,327.844543 
	C360.662872,317.872955 348.728302,304.419159 344.830200,285.418823 
	C342.011047,271.677521 344.474304,258.916809 353.573608,248.152359 
	C357.808105,243.142929 363.424835,239.301941 368.714050,234.706940 
z"/>
</svg>